<?xml version="1.0" encoding="UTF-8"?>
<!DOCTYPE svg PUBLIC "-//W3C//DTD SVG 1.1//EN" "http://www.w3.org/Graphics/SVG/1.1/DTD/svg11.dtd">
<!-- Creator: CorelDRAW 2018 (64-Bit) -->
<svg xmlns="http://www.w3.org/2000/svg" xml:space="preserve" width="120px" height="66px" version="1.1" style="shape-rendering:geometricPrecision; text-rendering:geometricPrecision; image-rendering:optimizeQuality; fill-rule:evenodd; clip-rule:evenodd"
viewBox="0 0 120 65.81"
 xmlns:xlink="http://www.w3.org/1999/xlink">
 <defs>
  <style type="text/css">
   <![CDATA[
    .fil0 {fill:#E31E24}
   ]]>
  </style>
 </defs>
 <g id="Layer_x0020_1">
  <metadata id="CorelCorpID_0Corel-Layer"/>
  <g id="_1042618832">
   <path class="fil0" d="M34.3 6.8l-4.49 0 0 4.92 4.49 0 0 6.63c0,5.93 10.26,6.12 10.26,-0.22l-4.7 0 0 -6.41 4.7 0c0,-5.57 -3.7,-3.88 -5.01,-5.47 -0.63,-0.77 -1.21,-1.06 -1.97,-1.16l-3.28 0 0 1.71z"/>
   <path class="fil0" d="M22.52 23.05c2.8,-0.08 4.84,-0.56 6.22,-2.78 2.27,-3.67 -0.66,-8.13 -3.21,-8.34 0.7,-1.33 2.32,-3.45 0.17,-5.73 -0.64,-0.68 -1.43,-0.99 -2.38,-1.11l-4.85 0 0 6.63c6.35,0 7.03,8.71 2.06,10.61 -0.9,0.34 -1,0.17 -1.92,0.64 -0.03,0.02 -0.1,0.05 -0.14,0.08l4.05 0z"/>
   <path class="fil0" d="M30.02 23.05l3.64 0 0 -7.06c0,-1.82 -2.08,-3.06 -3.64,-3.42l0 10.48z"/>
  </g>
 </g>
</svg>
