<?xml version="1.0" encoding="UTF-8"?>
<!DOCTYPE svg PUBLIC "-//W3C//DTD SVG 1.1//EN" "http://www.w3.org/Graphics/SVG/1.1/DTD/svg11.dtd">
<!-- Creator: CorelDRAW 2018 (64-Bit) -->
<svg xmlns="http://www.w3.org/2000/svg" xml:space="preserve" width="122px" height="84px" version="1.1" style="shape-rendering:geometricPrecision; text-rendering:geometricPrecision; image-rendering:optimizeQuality; fill-rule:evenodd; clip-rule:evenodd"
viewBox="0 0 122 84"
 xmlns:xlink="http://www.w3.org/1999/xlink">
 <defs>
  <style type="text/css">
   <![CDATA[
    .fil0 {fill:url(#id0)}
   ]]>
  </style>
  <linearGradient id="id0" gradientUnits="userSpaceOnUse" x1="58.3" y1="77.68" x2="58.3" y2="-2.54">
   <stop offset="0" style="stop-opacity:1; stop-color:#FF816A"/>
   <stop offset="0.6" style="stop-opacity:1; stop-color:#AE4E47"/>
   <stop offset="1" style="stop-opacity:1; stop-color:#5D1B23"/>
  </linearGradient>
 </defs>
 <g id="Layer_x0020_1">
  <metadata id="CorelCorpID_0Corel-Layer"/>
  <path class="fil0" d="M73.93 8.39l-20.89 0 0 22.88 20.89 0 0 30.85c0,26.87 45.28,28.4 47.66,1.25l0 -2.24 -21.79 0 0 -29.86 21.79 0 0 -3.3c-1.43,-21.92 -17.39,-15.06 -23.23,-22.12 -2.94,-3.56 -5.64,-4.94 -9.17,-5.42l-15.26 0 0 7.96 0 0zm-54.77 75.61c13.02,-0.39 22.5,-2.6 28.91,-12.92 10.6,-17.09 -3.06,-37.83 -14.93,-38.81 3.28,-6.18 10.82,-16.04 0.8,-26.67 -2.98,-3.17 -6.67,-4.59 -11.08,-5.17l-22.55 0 0 30.84c29.55,0 32.72,40.52 9.58,49.38 -4.19,1.59 -4.65,0.79 -8.96,2.98 -0.13,0.07 -0.42,0.24 -0.62,0.37l18.85 0 0 0zm34.87 0l16.92 0 0 -32.82c0,-8.48 -9.66,-14.24 -16.92,-15.93l0 48.75 0 0z"/>
 </g>
</svg>
