<?xml version="1.0" encoding="UTF-8"?>
<!DOCTYPE svg PUBLIC "-//W3C//DTD SVG 1.1//EN" "http://www.w3.org/Graphics/SVG/1.1/DTD/svg11.dtd">
<!-- Creator: CorelDRAW 2018 (64-Bit) -->
<svg xmlns="http://www.w3.org/2000/svg" xml:space="preserve" width="122px" height="84px" version="1.1" style="shape-rendering:geometricPrecision; text-rendering:geometricPrecision; image-rendering:optimizeQuality; fill-rule:evenodd; clip-rule:evenodd"
viewBox="0 0 122 84"
 xmlns:xlink="http://www.w3.org/1999/xlink">
 <defs>
  <style type="text/css">
   <![CDATA[
    .fil0 {fill:#FEFEFE}
   ]]>
  </style>
 </defs>
 <g id="Layer_x0020_1">
  <metadata id="CorelCorpID_0Corel-Layer"/>
  <path class="fil0" d="M73.73 8.23l-21.02 0 0 23.02 21.02 0 0 31.03c0,27.03 45.55,28.57 47.94,1.26l0 -2.26 -21.92 0 0 -30.03 21.92 0 0 -3.32c-1.44,-22.05 -17.49,-15.15 -23.37,-22.26 -2.96,-3.58 -5.67,-4.97 -9.22,-5.45l-15.35 0 0 8.01zm-55.1 76.06c13.1,-0.39 22.63,-2.61 29.08,-13 10.66,-17.19 -3.08,-38.05 -15.02,-39.04 3.3,-6.22 10.89,-16.13 0.81,-26.83 -3,-3.19 -6.71,-4.61 -11.15,-5.2l-22.68 0 0 31.03c29.72,0 32.91,40.76 9.63,49.67 -4.21,1.6 -4.67,0.79 -9.01,3 -0.13,0.07 -0.42,0.24 -0.62,0.37l18.96 0zm35.08 0l17.02 0 0 -33.02c0,-8.53 -9.72,-14.32 -17.02,-16.02l0 49.04z"/>
 </g>
</svg>
